<svg version="1" xmlns="http://www.w3.org/2000/svg" width="1066.667" height="1066.667" viewBox="0 0 800.000000 800.000000"><path d="M429 122.2c-14.9 2.4-31.2 6.7-40 10.5-19.5 8.3-34 17-51 30.9-6.2 5.1-24.3 23.7-30.6 31.4-16.5 20.4-29.1 41.1-40.4 66.5-2.9 6.6-6.3 14.2-7.5 17-1.3 2.7-16.8 37.6-34.5 77.5s-33.5 75.3-35.1 78.8c-1.6 3.5-2.9 6.5-2.9 6.7 0 .2-1.3 3.2-2.9 6.7-3.3 7.1-7.6 16.8-9.6 21.3-.7 1.6-2.4 5.5-3.8 8.5s-11.6 26-22.7 51-21.1 47.5-22.2 50c-1.1 2.5-3.7 8.3-5.8 13-2.1 4.7-4.7 10.5-5.8 13-13.3 30.3-20 45.1-25.6 57.4-2.6 5.5-4.4 10.1-4.2 10.4.8.7 9.1 1.1 41.6 1.7 17.3.3 41.6.8 54 1.1 12.4.3 41.4.7 64.5.9 23.1.2 75.8.7 117 1 101.2 1 134.1 1 140 .1 7.9-1.1 11.6-1.7 13.9-2.2 1.1-.2 3.5-.7 5.1-1 10.6-1.9 25.2-6.2 38-11.1 8.9-3.4 33.5-15.7 34.5-17.2.3-.4 1.6-1.4 3-2.1 11.2-5.8 33.8-27.4 44.3-42.3 6-8.5 68.4-111.4 73.3-121 1.3-2.6 2.1-4.8 1.7-4.8-.5-.1-62-.3-136.8-.4-74.8-.2-137.1-.4-138.4-.4-1.7-.1-2.1-.4-1.3-1.4.8-1 19.7-42 36.2-78.7 2.6-5.8 6.2-13.7 8-17.5 1.8-3.9 4.2-9.3 5.5-12 1.2-2.8 3.4-7.5 4.8-10.5s4.8-10.7 7.7-17c2.9-6.3 7-15.3 9.1-19.8 2.2-4.6 3.9-8.5 3.9-8.7 0-.2 2.1-4.7 4.6-10.2 6.4-13.7 8.3-17.8 15.7-34.3 3.6-8 8.1-17.9 10-22 3.2-6.8 15-32.7 20.7-45.5 1.2-2.8 3.9-8.6 6-13 9-19.3 27-59.4 27-60.2 0-.4-6.2-.9-13.8-.9-7.5-.1-27.4-.4-44.2-.8-57.1-1.2-105.5-1.4-111-.4z"/></svg>