<svg xmlns="http://www.w3.org/2000/svg" width="35.001" height="35" viewBox="0 0 70 70">
  <path id="Icon_awesome-linkedin-in" data-name="Icon awesome-linkedin-in" d="M13.431,60H.991V19.943h12.44ZM7.2,14.479a7.238,7.238,0,1,1,7.2-7.272A7.265,7.265,0,0,1,7.2,14.479ZM59.988,60H47.575V40.5c0-4.647-.094-10.607-6.468-10.607-6.468,0-7.459,5.049-7.459,10.273V60H21.223V19.943H33.153v5.464h.174c1.661-3.147,5.718-6.469,11.77-6.469C57.687,18.939,60,27.229,60,38V60Z" transform="translate(0 -0.002)" fill="#fff"/>
</svg>
