<?xml version="1.0" encoding="utf-8"?>
<!-- Generator: Adobe Illustrator 24.1.1, SVG Export Plug-In . SVG Version: 6.00 Build 0)  -->
<svg version="1.1" id="Layer_1" xmlns="http://www.w3.org/2000/svg" width="35" height="35"  xmlns:xlink="http://www.w3.org/1999/xlink" x="70px" y="70px"
	 viewBox="0 0 35 35" style="enable-background:new 0 0 35 35;" xml:space="preserve">
<style type="text/css">
	.st0{fill:#FFFFFF;}
</style>
<path id="Icon_awesome-linkedin-in" class="st0" d="M7.9,35H0.6V11.6h7.2V35z M4.2,8.4C1.9,8.5,0,6.6,0,4.2S1.9,0,4.2,0
	s4.2,1.9,4.2,4.2c0,0,0,0,0,0C8.4,6.5,6.6,8.4,4.2,8.4z M35,35h-7.2V23.6c0-2.7-0.1-6.2-3.8-6.2c-3.8,0-4.3,2.9-4.3,6V35h-7.2V11.6
	h7v3.2h0.1c1-1.8,3.3-3.8,6.9-3.8c7.3,0,8.7,4.8,8.7,11.1L35,35L35,35z"/>
</svg>
